<?xml version="1.0" standalone="no"?>
<svg xmlns="http://www.w3.org/2000/svg" viewBox="0 0 168.1 24.36" width="168.1" height="24.36"><path fill="#000000" fill-rule="nonzero" d="M9 0.60Q11.38 0.60 13.27 1.32Q15.17 2.04 16.28 3.44Q17.40 4.85 17.40 6.86L17.40 6.86L12.34 6.86Q12.34 5.83 11.42 5.20Q10.51 4.56 9.22 4.56L9.22 4.56Q7.34 4.56 6.38 5.56Q5.42 6.55 5.42 8.38L5.42 8.38L5.42 9.91Q5.42 11.74 6.38 12.73Q7.34 13.73 9.22 13.73L9.22 13.73Q10.51 13.73 11.42 13.12Q12.34 12.50 12.34 11.54L12.34 11.54L8.59 11.54L8.59 8.18L17.40 8.18L17.40 17.40L14.66 17.40L14.14 15.77Q11.88 17.69 8.23 17.69L8.23 17.69Q4.13 17.69 2.06 15.54Q0 13.39 0 9.14L0 9.14Q0 4.94 2.34 2.77Q4.68 0.60 9 0.60L9 0.60ZM25.30 3.24L20.52 3.24L20.52 0L25.30 0L25.30 3.24ZM25.30 17.40L20.52 17.40L20.52 4.73L25.30 4.73L25.30 17.40ZM34.61 4.44Q37.51 4.44 39.34 5.41Q41.16 6.38 41.16 8.57L41.16 8.57L41.16 13.51Q41.16 13.92 41.35 14.18Q41.54 14.45 41.93 14.45L41.93 14.45L42.79 14.45L42.79 17.21Q42.72 17.26 42.42 17.36Q42.12 17.47 41.57 17.58Q41.02 17.69 40.30 17.69L40.30 17.69Q38.90 17.69 38.00 17.27Q37.10 16.85 36.77 16.10L36.77 16.10Q35.86 16.82 34.73 17.26Q33.60 17.69 32.09 17.69L32.09 17.69Q27.62 17.69 27.62 14.14L27.62 14.14Q27.62 12.29 28.62 11.32Q29.62 10.34 31.49 9.98Q33.36 9.62 36.38 9.62L36.38 9.62L36.38 9.00Q36.38 8.26 35.87 7.87Q35.35 7.49 34.54 7.49L34.54 7.49Q33.79 7.49 33.25 7.75Q32.71 8.02 32.71 8.59L32.71 8.59L32.71 8.69L28.01 8.69Q27.98 8.57 27.98 8.35L27.98 8.35Q27.98 6.55 29.70 5.50Q31.42 4.44 34.61 4.44L34.61 4.44ZM36.38 11.88Q34.34 11.88 33.37 12.32Q32.40 12.77 32.40 13.51L32.40 13.51Q32.40 14.71 34.03 14.71L34.03 14.71Q34.97 14.71 35.68 14.21Q36.38 13.70 36.38 12.96L36.38 12.96L36.38 11.88ZM53.09 4.44Q55.30 4.44 56.40 5.66Q57.50 6.89 57.50 9.19L57.50 9.19L57.50 17.40L52.73 17.40L52.73 9.77Q52.73 8.95 52.31 8.46Q51.89 7.97 51.12 7.97L51.12 7.97Q50.23 7.97 49.68 8.54Q49.13 9.12 49.13 9.96L49.13 9.96L49.13 17.40L44.35 17.40L44.35 4.73L48.26 4.73L48.58 6.65Q49.32 5.64 50.53 5.04Q51.74 4.44 53.09 4.44L53.09 4.44ZM75.60 5.11L70.20 5.11L70.20 17.40L64.90 17.40L64.90 5.11L59.47 5.11L59.47 0.89L75.60 0.89L75.60 5.11ZM82.80 4.44Q86.28 4.44 88.12 6.07Q89.95 7.70 89.95 11.06L89.95 11.06L89.95 11.88L80.45 11.88Q80.45 13.25 81.06 13.94Q81.67 14.64 82.99 14.64L82.99 14.64Q84.19 14.64 84.76 14.14Q85.32 13.63 85.32 12.79L85.32 12.79L89.95 12.79Q89.95 15.10 88.20 16.39Q86.45 17.69 83.09 17.69L83.09 17.69Q79.56 17.69 77.62 16.04Q75.67 14.40 75.67 11.06L75.67 11.06Q75.67 7.80 77.57 6.12Q79.46 4.44 82.80 4.44L82.80 4.44ZM82.99 7.49Q80.74 7.49 80.47 9.62L80.47 9.62L85.13 9.62Q85.13 8.64 84.56 8.06Q84 7.49 82.99 7.49L82.99 7.49ZM98.81 4.44Q101.93 4.44 103.86 5.77Q105.79 7.10 105.79 9.84L105.79 9.84L101.16 9.84Q101.16 7.68 98.81 7.68L98.81 7.68Q96.46 7.68 96.46 10.39L96.46 10.39L96.46 11.76Q96.46 14.45 98.90 14.45L98.90 14.45Q101.35 14.45 101.35 12.24L101.35 12.24L105.79 12.24Q105.79 15.00 103.86 16.34Q101.93 17.69 98.81 17.69L98.81 17.69Q95.47 17.69 93.58 16.01Q91.68 14.33 91.68 11.06L91.68 11.06Q91.68 7.80 93.58 6.12Q95.47 4.44 98.81 4.44L98.81 4.44ZM112.63 6.05Q113.40 5.28 114.43 4.86Q115.46 4.44 116.59 4.44L116.59 4.44Q118.80 4.44 119.90 5.66Q121.01 6.89 121.01 9.19L121.01 9.19L121.01 17.40L116.23 17.40L116.23 9.77Q116.23 8.95 115.81 8.46Q115.39 7.97 114.62 7.97L114.62 7.97Q113.74 7.97 113.18 8.54Q112.63 9.12 112.63 9.96L112.63 9.96L112.63 17.40L107.86 17.40L107.86 0L112.63 0L112.63 6.05Z" transform="translate(0, 3.336)"></path><line x1="130.00799999999998" y1="2%" x2="130.00799999999998" y2="98%" stroke="#000000" stroke-linecap="round"></line><g fill="#000000" color="#000000" transform="translate(139.00799999999998 0) scale(0.58)"><svg width="50.0" height="42.0" x="0.0" y="0.0" viewBox="0 0 50 42"><path fill="currentColor" fill-rule="nonzero" d="M21.3 13.56l5.81 12.46-10.95-2.3-5.81-12.46 10.95 2.3zm20.86-9.73l5.81 12.46-10.95-2.3-5.81-12.46 10.95 2.3zm-8.91 36.83L8.44 36.19 16 24.99l12.1 2.54c.05.01.09.01.13.01.09 0 .18-.02.27-.06.01 0 .01-.01.01-.01.03-.01.05-.04.08-.06.03-.02.05-.05.08-.07.03-.03.07-.05.09-.08l8.11-12.01 11.19 2.35-14.81 23.06zm16.45-23.3c.01-.02.02-.03.03-.05.01-.05-.02-.08-.03-.13 0-.07.01-.13-.02-.2-.01-.02.01-.05-.01-.07L43.19 3c-.01-.02-.03-.02-.03-.03-.04-.07-.11-.11-.18-.16-.07-.05-.12-.11-.2-.14-.02-.01-.02-.02-.04-.03L30.22.01c-.04-.01-.08.03-.13.03-.07 0-.13 0-.19.02-.03.01-.06-.01-.08 0-.01.01-.02.03-.03.03-.05.03-.08.07-.12.12-.03.03-.08.03-.11.07l-8.11 12.01-12.1-2.54c-.05-.01-.08.02-.13.02-.07 0-.12 0-.19.02-.03.01-.06-.01-.08.01-.02.01-.02.03-.03.03-.05.03-.08.07-.12.12-.03.03-.08.03-.11.07L.34 22.37c-.02.02 0 .05-.02.08-.04.08-.04.15-.05.23-.01.08-.02.16.01.24.02.03 0 .05.01.08l6.49 13.91c.01.02.03.03.05.05.02.04.04.06.07.09.03.03.05.06.08.08.01.01.01.03.02.04 0 0 .01 0 .01.01.05.03.11.04.17.05.03.01.04.04.06.04l26.2 4.72a.61.61 0 0 0 .48-.12c.03-.02.05-.05.08-.07.03-.03.07-.05.1-.09l15.54-24.18c.02-.02 0-.05.01-.07.02-.04.03-.07.05-.1z"></path></svg></g></svg>